<?xml version="1.0" encoding="utf-8"?>
<!-- Svg Vector Icons : http://www.onlinewebfonts.com/icon -->
<!DOCTYPE svg PUBLIC "-//W3C//DTD SVG 1.1//EN" "http://www.w3.org/Graphics/SVG/1.1/DTD/svg11.dtd">
<svg version="1.1" xmlns="http://www.w3.org/2000/svg" xmlns:xlink="http://www.w3.org/1999/xlink" x="0px" y="0px" viewBox="0 0 256 256" enable-background="new 0 0 256 256" xml:space="preserve">
<metadata> Svg Vector Icons : http://www.onlinewebfonts.com/icon </metadata>
<g><g><path fill="#000000" d="M231.4,67.6c-5-8.3-11.2-16.4-18.8-23.9c-7.6-7.6-15.9-13.8-24.3-18.8L203.1,10c0,0,21.5,0,32.2,10.7C246,31.5,246,52.9,246,52.9L231.4,67.6L231.4,67.6z M99.2,201.6H54.4v-44.8l5.4-5.4c9.1,4.3,18.2,10.4,26.3,18.5c8.1,8.1,14.2,17.2,18.5,26.3L99.2,201.6L99.2,201.6z M219,80L117.6,183.3c-5.2-8.7-11.7-17.1-19.6-25c-8-7.9-16.6-14.4-25.4-19.7L176.1,37c8.7,4.1,17.4,9.9,25.2,17.7C209.1,62.6,214.9,71.2,219,80L219,80z M39.5,39.5v177h177v-73.7l29.5-29.5v111.3c0,11.8-9.6,21.5-21.5,21.5H31.5c-11.8,0-21.5-9.6-21.5-21.5V31.5C10,19.6,19.6,10,31.5,10h111.3l-29.5,29.5H39.5L39.5,39.5z"/></g></g>
</svg>